<svg xmlns="http://www.w3.org/2000/svg" aria-hidden="true" focusable="false" data-prefix="fas" data-icon="infinity" role="img" width="640" height="512" style=""><rect id="backgroundrect" width="100%" height="100%" x="0" y="0" fill="none" stroke="none"/><g class="currentLayer" style=""><title>Layer 1</title><path fill="#006600" d="M470.3857142686844,96 C404.2857142686844,96 352.5857142686844,137.3 319.2857142686844,174.6 C285.9857142686844,137.3 234.2857142686844,96 168.1857142686844,96 C75.08571426868438,96 -0.7142857313156128,167.8 -0.7142857313156128,256 s75.8,160 168.9,160 c66.1,0 117.8,-41.3 151.1,-78.6 c33.3,37.3 85,78.6 151.1,78.6 c93.1,0 168.9,-71.8 168.9,-160 S563.4857142686844,96 470.3857142686844,96 zM168.1857142686844,320 c-40.2,0 -72.9,-28.7 -72.9,-64 s32.7,-64 72.9,-64 c38.2,0 73.4,36.1 94,64 c-20.4,27.6 -55.9,64 -94,64 zm302.2,0 c-38.2,0 -73.4,-36.1 -94,-64 c20.4,-27.6 55.9,-64 94,-64 c40.2,0 72.9,28.7 72.9,64 s-32.7,64 -72.9,64 z" id="svg_1" class="" fill-opacity="1"/></g></svg>